<svg width="20" height="20" viewBox="0 0 20 20" fill="none" xmlns="http://www.w3.org/2000/svg">
<path d="M17.5001 11.6665C17.2791 11.6665 17.0671 11.7543 16.9108 11.9106C16.7545 12.0669 16.6667 12.2788 16.6667 12.4998V15.8332C16.6667 16.0542 16.579 16.2661 16.4227 16.4224C16.2664 16.5787 16.0544 16.6665 15.8334 16.6665H4.16675C3.94573 16.6665 3.73377 16.5787 3.57749 16.4224C3.42121 16.2661 3.33341 16.0542 3.33341 15.8332V12.4998C3.33341 12.2788 3.24562 12.0669 3.08934 11.9106C2.93306 11.7543 2.7211 11.6665 2.50008 11.6665C2.27907 11.6665 2.06711 11.7543 1.91083 11.9106C1.75455 12.0669 1.66675 12.2788 1.66675 12.4998V15.8332C1.66675 16.4962 1.93014 17.1321 2.39898 17.6009C2.86782 18.0698 3.50371 18.3332 4.16675 18.3332H15.8334C16.4965 18.3332 17.1323 18.0698 17.6012 17.6009C18.07 17.1321 18.3334 16.4962 18.3334 15.8332V12.4998C18.3334 12.2788 18.2456 12.0669 18.0893 11.9106C17.9331 11.7543 17.7211 11.6665 17.5001 11.6665ZM9.40841 13.0915C9.48767 13.1674 9.58112 13.2268 9.68342 13.2665C9.78316 13.3106 9.89102 13.3334 10.0001 13.3334C10.1091 13.3334 10.217 13.3106 10.3167 13.2665C10.419 13.2268 10.5125 13.1674 10.5917 13.0915L13.9251 9.75817C14.082 9.60125 14.1702 9.38842 14.1702 9.1665C14.1702 8.94459 14.082 8.73176 13.9251 8.57484C13.7682 8.41792 13.5553 8.32976 13.3334 8.32976C13.1115 8.32976 12.8987 8.41792 12.7417 8.57484L10.8334 10.4915V2.49984C10.8334 2.27882 10.7456 2.06686 10.5893 1.91058C10.4331 1.7543 10.2211 1.6665 10.0001 1.6665C9.77907 1.6665 9.56711 1.7543 9.41083 1.91058C9.25455 2.06686 9.16675 2.27882 9.16675 2.49984V10.4915L7.25842 8.57484C7.18072 8.49714 7.08847 8.4355 6.98696 8.39345C6.88544 8.3514 6.77663 8.32976 6.66675 8.32976C6.55687 8.32976 6.44806 8.3514 6.34654 8.39345C6.24502 8.4355 6.15278 8.49714 6.07508 8.57484C5.99738 8.65254 5.93575 8.74478 5.8937 8.8463C5.85165 8.94781 5.83001 9.05662 5.83001 9.1665C5.83001 9.27639 5.85165 9.38519 5.8937 9.48671C5.93575 9.58823 5.99738 9.68047 6.07508 9.75817L9.40841 13.0915Z" fill="#16C9BD"/>
</svg>
