<svg width="15" height="14" viewBox="0 0 15 14" fill="none" xmlns="http://www.w3.org/2000/svg">
<path d="M10.5831 3.49995C10.4284 3.49995 10.28 3.5614 10.1706 3.6708C10.0612 3.7802 9.99978 3.92857 9.99978 4.08328V8.51078L5.16395 3.66911C5.05411 3.55927 4.90513 3.49756 4.74978 3.49756C4.59444 3.49756 4.44546 3.55927 4.33562 3.66911C4.22577 3.77896 4.16406 3.92794 4.16406 4.08328C4.16406 4.23862 4.22577 4.3876 4.33562 4.49745L9.17728 9.33328H4.74978C4.59507 9.33328 4.4467 9.39474 4.3373 9.50413C4.22791 9.61353 4.16645 9.7619 4.16645 9.91661C4.16645 10.0713 4.22791 10.2197 4.3373 10.3291C4.4467 10.4385 4.59507 10.4999 4.74978 10.4999H10.5831C10.6593 10.499 10.7347 10.4832 10.8048 10.4533C10.9473 10.3941 11.0606 10.2808 11.1198 10.1383C11.1497 10.0681 11.1655 9.99284 11.1664 9.91661V4.08328C11.1664 3.92857 11.105 3.7802 10.9956 3.6708C10.8862 3.5614 10.7378 3.49995 10.5831 3.49995Z" fill="#EA3269"/>
</svg>
