<svg width="18" height="18" viewBox="0 0 18 18" fill="none" xmlns="http://www.w3.org/2000/svg">
<g opacity="0.6">
<path d="M15.9187 10.1415L15.9113 10.1354C15.8752 10.1056 15.8315 10.0865 15.7851 10.0803C15.739 10.0741 15.692 10.081 15.6496 10.1C14.7913 10.4927 13.8581 10.6948 12.9143 10.6925C12.914 10.6925 12.9138 10.6925 12.9136 10.6925L12.9149 10.1925C11.3015 10.1905 9.75434 9.55082 8.61071 8.41282C7.46709 7.27481 6.81975 5.73082 6.80986 4.11749L15.9187 10.1415ZM15.9187 10.1415L15.9264 10.1474C15.9657 10.1774 15.9952 10.2183 16.0112 10.265C16.0272 10.3117 16.029 10.3621 16.0164 10.4099L16.0164 10.4099L16.0146 10.4171C15.7245 11.586 15.1421 12.6621 14.322 13.5441C13.5019 14.4261 12.471 15.0852 11.3262 15.4594C10.1814 15.8336 8.96031 15.9107 7.77757 15.6833C6.59483 15.456 5.48928 14.9317 4.5648 14.1598C3.64032 13.3879 2.92724 12.3936 2.49256 11.2704C2.05788 10.1471 1.91585 8.93186 2.07984 7.73868C2.24382 6.54551 2.70843 5.4136 3.43001 4.44929C4.14744 3.49053 5.09548 2.72874 6.18597 2.23456C6.22428 2.22243 6.26502 2.2197 6.30471 2.22668C6.34849 2.23437 6.38942 2.2536 6.4233 2.28238L6.74704 1.90134L6.4233 2.28238C6.45717 2.31116 6.48276 2.34845 6.49743 2.39041C6.51115 2.42967 6.51485 2.47169 6.50825 2.51266L15.9187 10.1415ZM5.80986 4.117L5.80986 3.91499V2.86783L4.99552 3.52616C3.93649 4.38229 3.16798 5.54484 2.79521 6.85463C2.42244 8.16442 2.46363 9.55741 2.91314 10.8429C3.36266 12.1284 4.19852 13.2435 5.30629 14.0355C6.2789 14.7309 7.41937 15.1475 8.60486 15.2453V15.2969L9.10424 15.2975C10.3028 15.299 11.479 14.9732 12.506 14.3553C13.533 13.7374 14.3718 12.8508 14.9319 11.7912L15.4334 10.8425L14.3844 11.0687C13.9022 11.1728 13.4101 11.2243 12.9167 11.2225L12.9153 11.2225C11.0314 11.2206 9.22519 10.4714 7.89306 9.13929C6.56104 7.80727 5.81184 6.00124 5.80986 4.11749C5.80986 4.11733 5.80986 4.11716 5.80986 4.117Z" fill="#17191B" stroke="white"/>
</g>
</svg>
