<svg width="20" height="20" viewBox="0 0 20 20" fill="none" xmlns="http://www.w3.org/2000/svg">
<path fill-rule="evenodd" clip-rule="evenodd" d="M5.24416 2.74408C5.5696 2.41864 6.09723 2.41864 6.42267 2.74408L9.756 6.07741C10.0814 6.40285 10.0814 6.93049 9.756 7.25592C9.43057 7.58136 8.90293 7.58136 8.57749 7.25592L6.66675 5.34518L6.66675 16.6667C6.66675 17.1269 6.29365 17.5 5.83341 17.5C5.37318 17.5 5.00008 17.1269 5.00008 16.6667L5.00008 5.34518L3.08934 7.25592C2.7639 7.58136 2.23626 7.58136 1.91083 7.25592C1.58539 6.93048 1.58539 6.40285 1.91083 6.07741L5.24416 2.74408Z" fill="white"/>
<path fill-rule="evenodd" clip-rule="evenodd" d="M14.7561 17.2559C14.4306 17.5814 13.903 17.5814 13.5776 17.2559L10.2442 13.9226C9.9188 13.5972 9.9188 13.0695 10.2442 12.7441C10.5697 12.4186 11.0973 12.4186 11.4228 12.7441L13.3335 14.6548L13.3335 3.33333C13.3335 2.8731 13.7066 2.5 14.1668 2.5C14.6271 2.5 15.0002 2.8731 15.0002 3.33333L15.0002 14.6548L16.9109 12.7441C17.2363 12.4186 17.764 12.4186 18.0894 12.7441C18.4149 13.0695 18.4149 13.5972 18.0894 13.9226L14.7561 17.2559Z" fill="white"/>
</svg>
